# File created by Blade
# Date/Time:  Wed Jan 21 18:02:19 2015
# Frame Rate: 120.000 fps
#------------------------------------------------------
:FULLY-SPECIFIED
:DEGREES
300
root 20.766882 35.879624 -25.763538 -191.595569 -15.873922 -173.111087
Spine 7.552758 -5.551887 1.621624
Head -1.341869 -11.793326 8.356841
LeftShoulder -3.897972 -18.717253 -2.036978
LeftArm -19.854528 15.497120 -79.793080
LeftForeArm -4.598856 -0.000000 0.500701
LeftHand -2.164225 -0.000000 -0.424279
LeftHandThumb1 -26.253704 0.000000 33.147579
RightShoulder -9.901325 -12.018757 14.933401
RightArm 12.502435 -9.772999 64.965024
RightForeArm -22.768430 -0.000000 19.710654
RightHand -0.311524 -0.000000 7.095031
RightHandThumb1 -24.326973 -0.000000 -32.862282
LeftUpLeg 2.171517 2.254851 0.445605
LeftLeg 12.632809 -0.000000 -0.000000
LeftFoot -19.739973 22.491202 -4.400530
LeftToeBase 24.611390 -0.000000 -0.000000
RightUpLeg -24.376619 2.957357 8.630417
RightLeg 24.437515 -0.000000 -0.000000
RightFoot -22.480646 -33.186256 11.580255
RightToeBase -0.578547 -0.000000 0.000000
301
root 20.792769 35.875375 -25.802563 -191.247300 -15.673110 -173.202273
Spine 6.922789 -5.246808 1.735554
Head -1.173734 -11.840289 8.131192
LeftShoulder -4.152886 -18.463097 -2.043874
LeftArm -20.133129 15.302398 -79.977987
LeftForeArm -4.434436 -0.000000 0.639460
LeftHand -2.218177 -0.000000 -0.511028
LeftHandThumb1 -26.253704 0.000000 33.147579
RightShoulder -9.941784 -12.048824 14.820058
RightArm 12.079538 -8.905087 65.524426
RightForeArm -22.742803 -0.000000 18.751409
RightHand -0.256140 -0.000000 7.350180
RightHandThumb1 -24.326973 -0.000000 -32.862282
LeftUpLeg 1.876540 2.063121 0.394083
LeftLeg 12.732195 -0.000000 -0.000000
LeftFoot -19.852057 22.748326 -4.576776
LeftToeBase 24.542004 -0.000000 -0.000000
RightUpLeg -23.195035 2.750776 9.003155
RightLeg 25.866314 -0.000000 -0.000000
RightFoot -23.023899 -33.686141 11.915517
RightToeBase -0.056690 -0.000000 0.000000
302
root 20.823110 35.870704 -25.833706 -190.875493 -15.502432 -173.252225
Spine 6.282130 -4.974269 1.900416
Head -1.049791 -11.874427 7.859579
LeftShoulder -4.390881 -18.249380 -2.079999
LeftArm -20.420004 15.241484 -80.180929
LeftForeArm -4.541977 -0.000000 0.759168
LeftHand -2.106900 -0.000000 -0.391721
LeftHandThumb1 -26.253704 0.000000 33.147579
RightShoulder -9.978847 -12.106275 14.685307
RightArm 11.646990 -8.236999 65.967381
RightForeArm -22.543132 0.000000 18.049097
RightHand -0.329307 0.000000 7.728910
RightHandThumb1 -24.326973 -0.000000 -32.862282
LeftUpLeg 1.555010 1.793704 0.366086
LeftLeg 12.789924 -0.000000 -0.000000
LeftFoot -19.937060 23.079132 -4.626805
LeftToeBase 24.595253 -0.000000 -0.000000
RightUpLeg -22.092076 2.475108 9.352758
RightLeg 27.244128 -0.000000 -0.000000
RightFoot -23.434629 -34.130602 12.172692
RightToeBase 0.119700 -0.000000 -0.000000
303
root 20.851008 35.867766 -25.870712 -190.629055 -15.254556 -173.312323
Spine 5.802226 -4.626431 2.060390
Head -0.948940 -11.950617 7.618643
LeftShoulder -4.589338 -18.048072 -2.115300
LeftArm -20.672265 15.060198 -80.354626
LeftForeArm -4.504129 0.000000 0.878971
LeftHand -2.168280 0.000000 -0.386757
LeftHandThumb1 -26.253704 0.000000 33.147579
RightShoulder -9.996915 -12.277700 14.534747
RightArm 11.355963 -7.708374 66.310174
RightForeArm -21.846569 -0.000000 17.388432
RightHand -0.212626 -0.000000 7.714612
RightHandThumb1 -24.326973 -0.000000 -32.862282
LeftUpLeg 1.431250 1.594145 0.343608
LeftLeg 12.739207 -0.000000 -0.000000
LeftFoot -20.019927 23.445793 -4.694616
LeftToeBase 24.231305 -0.000000 -0.000000
RightUpLeg -20.873425 2.122266 9.699034
RightLeg 28.520306 -0.000000 -0.000000
RightFoot -24.035475 -34.591479 12.516069
RightToeBase 0.697485 -0.000000 -0.000000
304
root 20.884211 35.863381 -25.895205 -190.298231 -15.037313 -173.369820
Spine 5.241416 -4.303429 2.226826
Head -0.830828 -12.034852 7.329473
LeftShoulder -4.738899 -17.909205 -2.143311
LeftArm -21.089315 15.289646 -80.722414
LeftForeArm -5.084831 -0.000000 1.104858
LeftHand -2.068483 -0.000000 -0.259138
LeftHandThumb1 -26.253704 0.000000 33.147579
RightShoulder -10.003868 -12.478177 14.387847
RightArm 11.083623 -7.250619 66.606737
RightForeArm -21.600693 -0.000000 16.887355
RightHand -0.494760 -0.000000 8.183668
RightHandThumb1 -24.326973 -0.000000 -32.862282
LeftUpLeg 1.192650 1.195293 0.296119
LeftLeg 12.715873 -0.000000 -0.000000
LeftFoot -20.018466 23.971587 -4.564492
LeftToeBase 24.372497 -0.000000 -0.000000
RightUpLeg -19.806897 1.758226 9.972125
RightLeg 29.723732 -0.000000 -0.000000
RightFoot -24.653372 -34.922220 12.908528
RightToeBase 0.970041 -0.000000 -0.000000
305
root 20.914288 35.860663 -25.921485 -190.042645 -14.754416 -173.436582
Spine 4.797826 -3.952848 2.386079
Head -0.730243 -12.014549 7.073992
LeftShoulder -4.929606 -17.769038 -2.193447
LeftArm -21.322655 15.105635 -80.881063
LeftForeArm -5.104482 -0.000000 1.162979
LeftHand -2.027186 -0.000000 -0.135697
LeftHandThumb1 -26.253704 0.000000 33.147579
RightShoulder -10.043859 -12.717459 14.221919
RightArm 10.991327 -7.083780 66.801500
RightForeArm -21.085418 -0.000000 16.341777
RightHand -0.553097 0.000000 8.357940
RightHandThumb1 -24.326973 -0.000000 -32.862282
LeftUpLeg 1.072239 0.821260 0.232728
LeftLeg 12.623027 -0.000000 -0.000000
LeftFoot -20.132497 24.542338 -4.490690
LeftToeBase 24.729052 -0.000000 -0.000000
RightUpLeg -18.702831 1.313165 10.226374
RightLeg 30.840952 -0.000000 -0.000000
RightFoot -25.270817 -35.281442 13.404842
RightToeBase 1.341260 -0.000000 -0.000000
306
root 20.946396 35.856377 -25.932903 -189.585268 -14.460606 -173.532513
Spine 4.102842 -3.550238 2.530766
Head -0.547378 -12.083114 6.783462
LeftShoulder -5.022296 -17.655881 -2.263378
LeftArm -21.692240 14.823470 -81.021528
LeftForeArm -5.071677 -0.000000 1.294085
LeftHand -1.914140 0.000000 -0.101042
LeftHandThumb1 -26.253704 0.000000 33.147579
RightShoulder -10.112692 -12.968771 14.041552
RightArm 10.868750 -7.091709 66.938426
RightForeArm -20.744066 -0.000000 15.864538
RightHand -0.613008 -0.000000 8.437585
RightHandThumb1 -24.326973 -0.000000 -32.862282
LeftUpLeg 0.715493 0.441469 0.142993
LeftLeg 12.563366 -0.000000 -0.000000
LeftFoot -20.264193 25.109434 -4.700718
LeftToeBase 24.712511 -0.000000 -0.000000
RightUpLeg -17.820037 0.891501 10.372064
RightLeg 31.849885 -0.000000 -0.000000
RightFoot -25.640085 -35.515726 13.545088
RightToeBase 1.636849 -0.000000 -0.000000
